<svg xmlns="http://www.w3.org/2000/svg" version="1.1" xmlns:xlink="http://www.w3.org/1999/xlink" xmlns:svgjs="http://svgjs.dev/svgjs" width="2000" height="1247" viewBox="0 0 2000 1247"><g transform="matrix(1,0,0,1,-1.2121212121212466,0.5250526315790012)"><svg viewBox="0 0 396 247" data-background-color="#ffffff" preserveAspectRatio="xMidYMid meet" height="1247" width="2000" xmlns="http://www.w3.org/2000/svg" xmlns:xlink="http://www.w3.org/1999/xlink"><g id="tight-bounds" transform="matrix(1,0,0,1,0.2400000000000091,-0.09999999999999432)"><svg viewBox="0 0 395.52 247.2" height="247.2" width="395.52"><g><svg></svg></g><g><svg viewBox="0 0 395.52 247.2" height="247.2" width="395.52"><mask id="2b16e873-0207-4499-8d31-15fcb2cb47ee"><rect width="395.52" height="247.2" fill="white"></rect><g transform="matrix(1,0,0,1,0,100.54174280829108)" id="clone"><svg viewBox="0 0 395.52 46.11651438341782" height="46.11651438341782" width="395.52"><g><svg viewBox="0 0 395.52 46.11651438341782" height="46.11651438341782" width="395.52"><g><svg viewBox="0 0 395.52 46.11651438341782" height="46.11651438341782" width="395.52"><g><svg viewBox="0 0 395.52 46.11651438341782" height="46.11651438341782" width="395.52"><g id="SvgjsG2037"><svg viewBox="0 0 395.52 46.11651438341782" height="46.11651438341782" width="395.52" id="SvgjsSvg2036"><g><svg viewBox="0 0 395.52 46.11651438341782" height="46.11651438341782" width="395.52"><g transform="matrix(1,0,0,1,0,0)"><svg width="395.52" viewBox="-1.8 -35.4 326.53000000000003 38.96" height="46.11651438341782" data-palette-color="#915eff"><path d="M14.11-13.16L23.19 0 16.8 0 8.54-12.89 6.25-12.89 6.25 0 1.2 0 1.2-31.86 11.69-31.86Q16.94-31.86 19.85-29.46 22.75-27.05 22.75-22.34L22.75-22.34Q22.75-20.24 22.11-18.64 21.46-17.04 20.28-15.89 19.09-14.75 17.52-14.07 15.94-13.4 14.11-13.16L14.11-13.16ZM17.7-22.41L17.7-22.41Q17.7-24.85 16.1-26.07 14.5-27.29 11.69-27.29L11.69-27.29 6.25-27.29 6.25-17.46 11.69-17.46Q14.5-17.46 16.1-18.68 17.7-19.9 17.7-22.41ZM41.75-31.86L41.75-25.71 35.59-25.71 35.59-31.86 41.75-31.86ZM46.38-4.54L46.38 0 31.1 0 31.1-4.54 36.13-4.54 36.13-18.19 31.1-18.19 31.1-22.75 41.18-22.75 41.18-4.54 46.38-4.54ZM76.14-14.04L76.14 0 71.09 0 71.09-14.04Q71.09-16.7 70.09-17.72 69.09-18.75 67.18-18.75L67.18-18.75Q64.37-18.75 62.6-16.48 60.83-14.21 60.83-10.21L60.83-10.21 60.83 0 55.78 0 55.78-22.75 60.83-22.75 60.83-17.04Q61.59-20 63.64-21.64 65.69-23.29 68.7-23.29L68.7-23.29Q72.19-23.29 74.16-21.02 76.14-18.75 76.14-14.04L76.14-14.04ZM96.33-31.86L96.33-25.71 90.18-25.71 90.18-31.86 96.33-31.86ZM100.97-4.54L100.97 0 85.69 0 85.69-4.54 90.72-4.54 90.72-18.19 85.69-18.19 85.69-22.75 95.77-22.75 95.77-4.54 100.97-4.54ZM155.65-11.3L159.7-9.74Q159.12-7.4 158.14-5.49 157.17-3.59 155.76-2.25 154.36-0.9 152.49-0.17 150.62 0.56 148.21 0.56L148.21 0.56Q144.86 0.56 142.54-0.82 140.22-2.2 138.74-4.5 137.27-6.81 136.62-9.78 135.97-12.74 135.97-15.94L135.97-15.94Q135.97-19.14 136.62-22.12 137.27-25.1 138.72-27.37 140.17-29.64 142.42-31.02 144.67-32.4 147.91-32.4L147.91-32.4Q148.96-32.4 150.04-32.13 151.11-31.86 152.04-31.31 152.97-30.76 153.66-29.96 154.36-29.15 154.65-28.1L154.65-28.1 154.65-31.86 159.22-31.86 159.22-19.8 154.65-19.8Q154.65-21.29 154.28-22.74 153.92-24.19 153.11-25.32 152.31-26.44 151.09-27.15 149.87-27.86 148.21-27.86L148.21-27.86Q146.06-27.86 144.69-26.81 143.32-25.76 142.49-24.05 141.66-22.34 141.33-20.21 141-18.09 141-15.94L141-15.94Q141-13.79 141.33-11.65 141.66-9.5 142.47-7.8 143.27-6.1 144.67-5.05 146.06-4 148.21-4L148.21-4Q151.31-4 152.98-5.98 154.65-7.96 155.65-11.3L155.65-11.3ZM185.31-14.04L185.31 0 180.26 0 180.26-14.04Q180.26-16.7 179.26-17.72 178.26-18.75 176.35-18.75L176.35-18.75Q173.54-18.75 171.77-16.48 170-14.21 170-10.21L170-10.21 170 0 164.95 0 164.95-31.86 170-31.86 170-17.04Q170.76-20 172.81-21.64 174.86-23.29 177.87-23.29L177.87-23.29Q181.36-23.29 183.33-21.02 185.31-18.75 185.31-14.04L185.31-14.04ZM190.95-6.54L190.95-6.54Q190.95-8.54 192.02-10.05 193.1-11.55 194.84-12.55 196.59-13.55 198.85-14.05 201.11-14.55 203.45-14.55L203.45-14.55Q204.74-14.55 205.67-14.5 206.6-14.45 207.55-14.36L207.55-14.36 207.55-15.26Q207.55-17.04 206.17-17.92 204.79-18.8 202.55-18.8L202.55-18.8Q200.5-18.8 198.37-18.23 196.25-17.65 194.34-16.55L194.34-16.55 192.29-20.51Q194.54-21.8 197.11-22.55 199.69-23.29 202.55-23.29L202.55-23.29Q204.4-23.29 206.2-22.88 207.99-22.46 209.42-21.51 210.85-20.56 211.7-19.03 212.56-17.5 212.56-15.26L212.56-15.26 212.56 0 207.55 0 207.55-3.34Q206.35-1.49 204.02-0.46 201.69 0.56 199.01 0.56L199.01 0.56Q197.35 0.56 195.87 0.11 194.39-0.34 193.32-1.25 192.24-2.15 191.6-3.48 190.95-4.81 190.95-6.54ZM200.3-3.96L200.3-3.96Q201.79-3.96 203.1-4.33 204.4-4.71 205.4-5.38 206.4-6.05 206.98-7.01 207.55-7.96 207.55-9.11L207.55-9.11 207.55-9.96Q206.35-10.16 205.3-10.18 204.25-10.21 203.45-10.21L203.45-10.21Q199.74-10.21 197.85-9.23 195.95-8.25 195.95-6.81L195.95-6.81Q195.95-3.96 200.3-3.96ZM239.9-14.04L239.9 0 234.84 0 234.84-14.04Q234.84-16.7 233.84-17.72 232.84-18.75 230.94-18.75L230.94-18.75Q228.13-18.75 226.36-16.48 224.59-14.21 224.59-10.21L224.59-10.21 224.59 0 219.54 0 219.54-22.75 224.59-22.75 224.59-17.04Q225.35-20 227.4-21.64 229.45-23.29 232.45-23.29L232.45-23.29Q235.94-23.29 237.92-21.02 239.9-18.75 239.9-14.04L239.9-14.04ZM267.19-31.86L267.19 0 262.14 0 262.14-2.1Q260.67-0.81 259.18-0.12 257.69 0.56 255.79 0.56L255.79 0.56Q253.59 0.56 251.71-0.32 249.83-1.2 248.48-2.77 247.12-4.35 246.35-6.54 245.58-8.74 245.58-11.35L245.58-11.35Q245.58-13.94 246.35-16.15 247.12-18.36 248.48-19.93 249.83-21.51 251.71-22.4 253.59-23.29 255.79-23.29L255.79-23.29Q257.69-23.29 259.18-22.64 260.67-22 262.14-20.7L262.14-20.7 262.14-27.29 257.74-27.29 257.74-31.86 267.19-31.86ZM262.14-6.05L262.14-16.7Q261.23-17.7 259.8-18.23 258.38-18.75 257.08-18.75L257.08-18.75Q254.23-18.75 252.43-16.7 250.64-14.65 250.64-11.35L250.64-11.35Q250.64-8.06 252.43-6.03 254.23-4 257.08-4L257.08-4Q258.38-4 259.8-4.53 261.23-5.05 262.14-6.05L262.14-6.05ZM297.02-22.29L295.12-17.36Q294.21-17.8 293.27-18.03 292.33-18.26 291.11-18.26L291.11-18.26Q289.43-18.26 287.95-17.76 286.47-17.26 285.4-16.26 284.33-15.26 283.73-13.76 283.13-12.26 283.13-10.21L283.13-10.21 283.13-4.54 288.23-4.54 288.23 0 272.92 0 272.92-4.54 278.08-4.54 278.08-18.19 272.92-18.19 272.92-22.75 283.13-22.75 283.13-17.04Q284.37-20.46 286.8-21.88 289.23-23.29 292.58-23.29L292.58-23.29Q293.63-23.29 294.77-23.07 295.92-22.85 297.02-22.29L297.02-22.29ZM300.12-6.54L300.12-6.54Q300.12-8.54 301.19-10.05 302.27-11.55 304.01-12.55 305.76-13.55 308.02-14.05 310.28-14.55 312.62-14.55L312.62-14.55Q313.91-14.55 314.84-14.5 315.77-14.45 316.72-14.36L316.72-14.36 316.72-15.26Q316.72-17.04 315.34-17.92 313.96-18.8 311.72-18.8L311.72-18.8Q309.66-18.8 307.54-18.23 305.42-17.65 303.51-16.55L303.51-16.55 301.46-20.51Q303.71-21.8 306.28-22.55 308.86-23.29 311.72-23.29L311.72-23.29Q313.57-23.29 315.37-22.88 317.16-22.46 318.59-21.51 320.02-20.56 320.87-19.03 321.73-17.5 321.73-15.26L321.73-15.26 321.73 0 316.72 0 316.72-3.34Q315.52-1.49 313.19-0.46 310.86 0.56 308.18 0.56L308.18 0.56Q306.52 0.56 305.04 0.11 303.56-0.34 302.49-1.25 301.41-2.15 300.77-3.48 300.12-4.81 300.12-6.54ZM309.47-3.96L309.47-3.96Q310.96-3.96 312.26-4.33 313.57-4.71 314.57-5.38 315.57-6.05 316.15-7.01 316.72-7.96 316.72-9.11L316.72-9.11 316.72-9.96Q315.52-10.16 314.47-10.18 313.42-10.21 312.62-10.21L312.62-10.21Q308.91-10.21 307.02-9.23 305.12-8.25 305.12-6.81L305.12-6.81Q305.12-3.96 309.47-3.96Z" opacity="1" transform="matrix(1,0,0,1,0,0)" fill="black" class="wordmark-text-0" id="SvgjsPath2035" stroke-width="5" stroke="black" stroke-linejoin="round"></path></svg></g></svg></g></svg></g></svg></g></svg></g></svg></g></svg></g></mask><g mask="url(#2b16e873-0207-4499-8d31-15fcb2cb47ee)"><g><path d="M97.857 144.301l68.102 98.703h-47.926l-61.952-96.678h-17.176v96.678h-37.876v-238.958h78.677c26.251 0 46.651 6 61.202 18.001 14.5 12.05 21.751 29.851 21.751 53.402v0c0 10.5-1.6 19.751-4.8 27.75-3.25 8-7.825 14.875-13.726 20.626-5.95 5.7-12.85 10.25-20.7 13.65-7.9 3.35-16.426 5.625-25.576 6.826zM124.783 74.924v-0.001c0-12.2-4-21.351-12.001-27.45-8-6.1-19.026-9.15-33.076-9.151v0h-40.801v73.728h40.801c14.05 0 25.076-3.05 33.076-9.151 8-6.1 12-15.425 12.001-27.975zM364.115 158.251l30.376 11.7c-2.9 11.7-6.8 22.326-11.7 31.876-4.9 9.5-10.85 17.601-17.851 24.301-7 6.75-15.175 11.95-24.526 15.601-9.35 3.65-20.076 5.475-32.176 5.475v0c-16.701 0-30.851-3.45-42.451-10.351-11.6-6.9-21.101-16.101-28.501-27.6-7.35-11.55-12.65-24.751-15.9-39.602-3.25-14.8-4.875-30.201-4.875-46.201v0c0-16 1.625-31.451 4.875-46.351 3.25-14.9 8.5-28.026 15.75-39.377 7.25-11.35 16.501-20.476 27.751-27.375 11.2-6.9 24.926-10.35 41.176-10.351v0c5.25 0 10.575 0.675 15.976 2.025 5.35 1.35 10.35 3.4 15 6.15 4.65 2.75 8.7 6.125 12.151 10.126 3.5 4.05 5.975 8.7 7.425 13.95v0-28.201h34.276v90.453h-34.276c0-7.45-0.925-14.8-2.775-22.051-1.8-7.25-4.725-13.7-8.775-19.35-4-5.6-9.05-10.175-15.151-13.726-6.1-3.55-13.325-5.325-21.676-5.325v0c-10.7 0-19.476 2.625-26.325 7.875-6.85 5.25-12.35 12.15-16.501 20.701-4.15 8.55-7.05 18.151-8.7 28.801-1.65 10.6-2.475 21.276-2.475 32.026v0c0 10.75 0.825 21.476 2.475 32.176 1.65 10.75 4.5 20.376 8.55 28.876 4 8.5 9.475 15.375 16.426 20.626 7 5.25 15.85 7.875 26.55 7.875v0c15.55 0 27.501-4.95 35.852-14.851 8.35-9.9 15.025-23.201 20.025-39.901z" fill="#6d29a6" fill-rule="nonzero" stroke="none" stroke-width="1" stroke-linecap="butt" stroke-linejoin="miter" stroke-miterlimit="10" stroke-dasharray="" stroke-dashoffset="0" font-family="none" font-weight="none" font-size="none" text-anchor="none" style="mix-blend-mode: normal" data-fill-palette-color="tertiary"></path></g></g><g transform="matrix(1,0,0,1,0,100.54174280829108)"><svg viewBox="0 0 395.52 46.11651438341782" height="46.11651438341782" width="395.52"><g><svg viewBox="0 0 395.52 46.11651438341782" height="46.11651438341782" width="395.52"><g><svg viewBox="0 0 395.52 46.11651438341782" height="46.11651438341782" width="395.52"><g><svg viewBox="0 0 395.52 46.11651438341782" height="46.11651438341782" width="395.52"><g id="textblocktransform"><svg viewBox="0 0 395.52 46.11651438341782" height="46.11651438341782" width="395.52" id="textblock"><g><svg viewBox="0 0 395.52 46.11651438341782" height="46.11651438341782" width="395.52"><g transform="matrix(1,0,0,1,0,0)"><svg width="395.52" viewBox="-1.8 -35.4 326.53000000000003 38.96" height="46.11651438341782" data-palette-color="#915eff"><path d="M14.11-13.16L23.19 0 16.8 0 8.54-12.89 6.25-12.89 6.25 0 1.2 0 1.2-31.86 11.69-31.86Q16.94-31.86 19.85-29.46 22.75-27.05 22.75-22.34L22.75-22.34Q22.75-20.24 22.11-18.64 21.46-17.04 20.28-15.89 19.09-14.75 17.52-14.07 15.94-13.4 14.11-13.16L14.11-13.16ZM17.7-22.41L17.7-22.41Q17.7-24.85 16.1-26.07 14.5-27.29 11.69-27.29L11.69-27.29 6.25-27.29 6.25-17.46 11.69-17.46Q14.5-17.46 16.1-18.68 17.7-19.9 17.7-22.41ZM41.75-31.86L41.75-25.71 35.59-25.71 35.59-31.86 41.75-31.86ZM46.38-4.54L46.38 0 31.1 0 31.1-4.54 36.13-4.54 36.13-18.19 31.1-18.19 31.1-22.75 41.18-22.75 41.18-4.54 46.38-4.54ZM76.14-14.04L76.14 0 71.09 0 71.09-14.04Q71.09-16.7 70.09-17.72 69.09-18.75 67.18-18.75L67.18-18.75Q64.37-18.75 62.6-16.48 60.83-14.21 60.83-10.21L60.83-10.21 60.83 0 55.78 0 55.78-22.75 60.83-22.75 60.83-17.04Q61.59-20 63.64-21.64 65.69-23.29 68.7-23.29L68.7-23.29Q72.19-23.29 74.16-21.02 76.14-18.75 76.14-14.04L76.14-14.04ZM96.33-31.86L96.33-25.71 90.18-25.71 90.18-31.86 96.33-31.86ZM100.97-4.54L100.97 0 85.69 0 85.69-4.54 90.72-4.54 90.72-18.19 85.69-18.19 85.69-22.75 95.77-22.75 95.77-4.54 100.97-4.54ZM155.65-11.3L159.7-9.74Q159.12-7.4 158.14-5.49 157.17-3.59 155.76-2.25 154.36-0.9 152.49-0.17 150.62 0.56 148.21 0.56L148.21 0.56Q144.86 0.56 142.54-0.82 140.22-2.2 138.74-4.5 137.27-6.81 136.62-9.78 135.97-12.74 135.97-15.94L135.97-15.94Q135.97-19.14 136.62-22.12 137.27-25.1 138.72-27.37 140.17-29.64 142.42-31.02 144.67-32.4 147.91-32.4L147.91-32.4Q148.96-32.4 150.04-32.13 151.11-31.86 152.04-31.31 152.97-30.76 153.66-29.96 154.36-29.15 154.65-28.1L154.65-28.1 154.65-31.86 159.22-31.86 159.22-19.8 154.65-19.8Q154.65-21.29 154.28-22.74 153.92-24.19 153.11-25.32 152.31-26.44 151.09-27.15 149.87-27.86 148.21-27.86L148.21-27.86Q146.06-27.86 144.69-26.81 143.32-25.76 142.49-24.05 141.66-22.34 141.33-20.21 141-18.09 141-15.94L141-15.94Q141-13.79 141.33-11.65 141.66-9.5 142.47-7.8 143.27-6.1 144.67-5.05 146.06-4 148.21-4L148.21-4Q151.31-4 152.98-5.98 154.65-7.96 155.65-11.3L155.65-11.3ZM185.31-14.04L185.31 0 180.26 0 180.26-14.04Q180.26-16.7 179.26-17.72 178.26-18.75 176.35-18.75L176.35-18.75Q173.54-18.75 171.77-16.48 170-14.21 170-10.21L170-10.21 170 0 164.95 0 164.95-31.86 170-31.86 170-17.04Q170.76-20 172.81-21.64 174.86-23.29 177.87-23.29L177.87-23.29Q181.36-23.29 183.33-21.02 185.31-18.75 185.31-14.04L185.31-14.04ZM190.95-6.54L190.95-6.54Q190.95-8.54 192.02-10.05 193.1-11.55 194.84-12.55 196.59-13.55 198.85-14.05 201.11-14.55 203.45-14.55L203.45-14.55Q204.74-14.55 205.67-14.5 206.6-14.45 207.55-14.36L207.55-14.36 207.55-15.26Q207.55-17.04 206.17-17.92 204.79-18.8 202.55-18.8L202.55-18.8Q200.5-18.8 198.37-18.23 196.25-17.65 194.34-16.55L194.34-16.55 192.29-20.51Q194.54-21.8 197.11-22.55 199.69-23.29 202.55-23.29L202.55-23.29Q204.4-23.29 206.2-22.88 207.99-22.46 209.42-21.51 210.85-20.56 211.7-19.03 212.56-17.5 212.56-15.26L212.56-15.26 212.56 0 207.55 0 207.55-3.34Q206.35-1.49 204.02-0.46 201.69 0.56 199.01 0.56L199.01 0.56Q197.35 0.56 195.87 0.11 194.39-0.34 193.32-1.25 192.24-2.15 191.6-3.48 190.95-4.81 190.95-6.54ZM200.3-3.96L200.3-3.96Q201.79-3.96 203.1-4.33 204.4-4.71 205.4-5.38 206.4-6.05 206.98-7.01 207.55-7.96 207.55-9.11L207.55-9.11 207.55-9.96Q206.35-10.16 205.3-10.18 204.25-10.21 203.45-10.21L203.45-10.21Q199.74-10.21 197.85-9.23 195.95-8.25 195.95-6.81L195.95-6.81Q195.95-3.96 200.3-3.96ZM239.9-14.04L239.9 0 234.84 0 234.84-14.04Q234.84-16.7 233.84-17.72 232.84-18.75 230.94-18.75L230.94-18.75Q228.13-18.75 226.36-16.48 224.59-14.21 224.59-10.21L224.59-10.21 224.59 0 219.54 0 219.54-22.75 224.59-22.75 224.59-17.04Q225.35-20 227.4-21.64 229.45-23.29 232.45-23.29L232.45-23.29Q235.94-23.29 237.92-21.02 239.9-18.75 239.9-14.04L239.9-14.04ZM267.19-31.86L267.19 0 262.14 0 262.14-2.1Q260.67-0.81 259.18-0.12 257.69 0.56 255.79 0.56L255.79 0.56Q253.59 0.56 251.71-0.32 249.83-1.2 248.48-2.77 247.12-4.35 246.35-6.54 245.58-8.74 245.58-11.35L245.58-11.35Q245.58-13.94 246.35-16.15 247.12-18.36 248.48-19.93 249.83-21.51 251.71-22.4 253.59-23.29 255.79-23.29L255.79-23.29Q257.69-23.29 259.18-22.64 260.67-22 262.14-20.7L262.14-20.7 262.14-27.29 257.74-27.29 257.74-31.86 267.19-31.86ZM262.14-6.05L262.14-16.7Q261.23-17.7 259.8-18.23 258.38-18.75 257.08-18.75L257.08-18.75Q254.23-18.75 252.43-16.7 250.64-14.65 250.64-11.35L250.64-11.35Q250.64-8.06 252.43-6.03 254.23-4 257.08-4L257.08-4Q258.38-4 259.8-4.53 261.23-5.05 262.14-6.05L262.14-6.05ZM297.02-22.29L295.12-17.36Q294.21-17.8 293.27-18.03 292.33-18.26 291.11-18.26L291.11-18.26Q289.43-18.26 287.95-17.76 286.47-17.26 285.4-16.26 284.33-15.26 283.73-13.76 283.13-12.26 283.13-10.21L283.13-10.21 283.13-4.54 288.23-4.54 288.23 0 272.92 0 272.92-4.54 278.08-4.54 278.08-18.19 272.92-18.19 272.92-22.75 283.13-22.75 283.13-17.04Q284.37-20.46 286.8-21.88 289.23-23.29 292.58-23.29L292.58-23.29Q293.63-23.29 294.77-23.07 295.92-22.85 297.02-22.29L297.02-22.29ZM300.12-6.54L300.12-6.54Q300.12-8.54 301.19-10.05 302.27-11.55 304.01-12.55 305.76-13.55 308.02-14.05 310.28-14.55 312.62-14.55L312.62-14.55Q313.91-14.55 314.84-14.5 315.77-14.45 316.72-14.36L316.72-14.36 316.72-15.26Q316.72-17.04 315.34-17.92 313.96-18.8 311.72-18.8L311.72-18.8Q309.66-18.8 307.54-18.23 305.42-17.65 303.51-16.55L303.51-16.55 301.46-20.51Q303.71-21.8 306.28-22.55 308.86-23.29 311.72-23.29L311.72-23.29Q313.57-23.29 315.37-22.88 317.16-22.46 318.59-21.51 320.02-20.56 320.87-19.03 321.73-17.5 321.73-15.26L321.73-15.26 321.73 0 316.72 0 316.72-3.34Q315.52-1.49 313.19-0.46 310.86 0.56 308.18 0.56L308.18 0.56Q306.52 0.56 305.04 0.11 303.56-0.34 302.49-1.25 301.41-2.15 300.77-3.48 300.12-4.81 300.12-6.54ZM309.47-3.96L309.47-3.96Q310.96-3.96 312.26-4.33 313.57-4.71 314.57-5.38 315.57-6.05 316.15-7.01 316.72-7.96 316.72-9.11L316.72-9.11 316.72-9.96Q315.52-10.16 314.47-10.18 313.42-10.21 312.62-10.21L312.62-10.21Q308.91-10.21 307.02-9.23 305.12-8.25 305.12-6.81L305.12-6.81Q305.12-3.96 309.47-3.96Z" opacity="1" transform="matrix(1,0,0,1,0,0)" fill="#915eff" class="wordmark-text-0" data-fill-palette-color="primary" id="text-0"></path></svg></g></svg></g></svg></g></svg></g></svg></g></svg></g></svg></g></svg></g><defs></defs></svg><rect width="395.52" height="247.2" fill="none" stroke="none" visibility="hidden"></rect></g></svg></g></svg>